<svg xmlns="http://www.w3.org/2000/svg" viewBox="0 0 326.465 258.588">
  <defs>
    <style>
      .cls-1, .cls-3, .cls-4 {
        fill: #25215a;
      }

      .cls-1 {
        stroke: #25215a;
        stroke-width: 8px;
      }

      .cls-2 {
        fill: #f8f4f4;
      }

      .cls-3 {
        font-size: 64px;
        font-family: HelveticaNeue-CondensedBold, Helvetica Neue;
        font-weight: 700;
      }

      .cls-5, .cls-7 {
        stroke: none;
      }

      .cls-6 {
        fill: none;
      }

      .cls-7 {
        fill: #fc9c7f;
      }
    </style>
  </defs>
  <g id="Symbol_5_1" data-name="Symbol 5 – 1" transform="translate(-134.053 -1606.298)">
    <g id="Ellipse_8" data-name="Ellipse 8" class="cls-1" transform="translate(134.053 1786.053) rotate(-74)">
      <ellipse class="cls-5" cx="93.5" cy="143" rx="93.5" ry="143"/>
      <ellipse class="cls-6" cx="93.5" cy="143" rx="89.5" ry="139"/>
    </g>
    <g id="Path_6" data-name="Path 6" class="cls-2" transform="translate(140.571 1783.889) rotate(-74)">
      <path class="cls-5" d="M 90 273 C 84.09621429443359 273 78.19446563720703 272.0907897949219 72.45864105224609 270.297607421875 C 66.85260772705078 268.5450134277344 61.33310699462891 265.9264526367188 56.05342864990234 262.5147399902344 C 50.84789276123047 259.1510009765625 45.82242965698242 254.9826354980469 41.11657333374023 250.1255035400391 C 36.43889236450195 245.2974700927734 32.03721618652344 239.7482147216797 28.03378486633301 233.6318511962891 C 24.02057075500488 227.5005340576172 20.37546348571777 220.7502899169922 17.19975090026855 213.5687103271484 C 13.98857116699219 206.3069305419922 11.22982120513916 198.5413208007812 9.000143051147461 190.4875640869141 C 6.727107048034668 182.2772216796875 4.981142997741699 173.6836090087891 3.81078577041626 164.9455413818359 C 2.609250068664551 155.9747161865234 2 146.7407073974609 2 137.5 C 2 128.2592926025391 2.609250068664551 119.0252838134766 3.81078577041626 110.0544662475586 C 4.981142997741699 101.3163909912109 6.727107048034668 92.72278594970703 9.000143051147461 84.51242828369141 C 11.22982120513916 76.45867919921875 13.98857116699219 68.69306945800781 17.19975090026855 61.4312858581543 C 20.37546348571777 54.24971389770508 24.02057075500488 47.49946594238281 28.03378486633301 41.36814117431641 C 32.03721618652344 35.25178527832031 36.43889236450195 29.70253562927246 41.11657333374023 24.8745002746582 C 45.82242965698242 20.01735687255859 50.84789276123047 15.84899997711182 56.05342864990234 12.48525047302246 C 61.33310699462891 9.073535919189453 66.85260772705078 6.454999923706055 72.45864105224609 4.702393054962158 C 78.19446563720703 2.90921425819397 84.09621429443359 2 90 2 C 95.90378570556641 2 101.805534362793 2.90921425819397 107.5413589477539 4.702393054962158 C 113.1473922729492 6.454999923706055 118.6668930053711 9.073535919189453 123.9465713500977 12.48525047302246 C 129.152099609375 15.84899997711182 134.1776123046875 20.01735687255859 138.8834686279297 24.8745002746582 C 143.5611114501953 29.70253562927246 147.9627838134766 35.25178527832031 151.9662170410156 41.36814117431641 C 155.9794616699219 47.49946594238281 159.6245727539062 54.24971389770508 162.80029296875 61.4312858581543 C 166.0114593505859 68.69306945800781 168.7701721191406 76.45867919921875 170.9998626708984 84.51242828369141 C 173.2728881835938 92.72278594970703 175.0188598632812 101.3163909912109 176.189208984375 110.0544662475586 C 177.3907470703125 119.0252838134766 178 128.2592926025391 178 137.5 C 178 146.7407073974609 177.3907470703125 155.9747161865234 176.189208984375 164.9455413818359 C 175.0188598632812 173.6836090087891 173.2728881835938 182.2772216796875 170.9998626708984 190.4875640869141 C 168.7701721191406 198.5413208007812 166.0114593505859 206.3069305419922 162.80029296875 213.5687103271484 C 159.6245727539062 220.7502899169922 155.9794616699219 227.5005340576172 151.9662170410156 233.6318511962891 C 147.9627838134766 239.7482147216797 143.5611114501953 245.2974700927734 138.8834686279297 250.1255035400391 C 134.1776123046875 254.9826354980469 129.152099609375 259.1510009765625 123.9465713500977 262.5147399902344 C 118.6668930053711 265.9264526367188 113.1473922729492 268.5450134277344 107.5413589477539 270.297607421875 C 101.805534362793 272.0907897949219 95.90378570556641 273 90 273 Z"/>
      <path class="cls-7" d="M 90 4 C 84.29884338378906 4 78.59784698486328 4.878570556640625 73.055419921875 6.611297607421875 C 67.62188720703125 8.309967041015625 62.26680755615234 10.85140991210938 57.13892364501953 14.1650390625 C 52.06072998046875 17.446533203125 47.15330505371094 21.51792907714844 42.55296325683594 26.26618957519531 C 37.96330261230469 31.00338745117188 33.64134216308594 36.45292663574219 29.70719909667969 42.46345520019531 C 25.75338745117188 48.50396728515625 22.16069030761719 55.15780639648438 19.02888488769531 62.24015808105469 C 15.85704040527344 69.41299438476562 13.13137817382812 77.08599853515625 10.92765808105469 85.04603576660156 C 8.678878784179688 93.16868591308594 6.951385498046875 101.6720733642578 5.793075561523438 110.3199615478516 C 4.603271484375 119.2030792236328 4 128.3477630615234 4 137.5 C 4 146.6522369384766 4.603271484375 155.7969207763672 5.793075561523438 164.6800384521484 C 6.951385498046875 173.3279266357422 8.678878784179688 181.831298828125 10.92765808105469 189.9539642333984 C 13.13137817382812 197.9140014648438 15.85704040527344 205.5870056152344 19.02888488769531 212.7598419189453 C 22.16069030761719 219.8421936035156 25.75338745117188 226.4960327148438 29.70719909667969 232.5365295410156 C 33.64134216308594 238.5470733642578 37.96330261230469 243.9966125488281 42.55296325683594 248.7338104248047 C 47.15330505371094 253.4820709228516 52.06072998046875 257.553466796875 57.13892364501953 260.8349609375 C 62.26680755615234 264.1485900878906 67.62188720703125 266.6900329589844 73.055419921875 268.3887023925781 C 78.59784698486328 270.1214294433594 84.29884338378906 271 90 271 C 95.70115661621094 271 101.4021530151367 270.1214294433594 106.944580078125 268.3887023925781 C 112.3781127929688 266.6900329589844 117.7331924438477 264.1485900878906 122.8610763549805 260.8349609375 C 127.9392700195312 257.553466796875 132.8466949462891 253.4820709228516 137.4470367431641 248.7338104248047 C 142.0366973876953 243.9966125488281 146.3586578369141 238.5470733642578 150.2928161621094 232.5365295410156 C 154.2466125488281 226.4960327148438 157.8393096923828 219.8421936035156 160.9711151123047 212.7598419189453 C 164.1429595947266 205.5870056152344 166.8686218261719 197.9140014648438 169.0723419189453 189.9539642333984 C 171.3211212158203 181.831298828125 173.0486145019531 173.3279266357422 174.2069244384766 164.6800384521484 C 175.396728515625 155.7969207763672 176 146.6522369384766 176 137.5 C 176 128.3477630615234 175.396728515625 119.2030792236328 174.2069244384766 110.3199615478516 C 173.0486145019531 101.6720733642578 171.3211212158203 93.16868591308594 169.0723419189453 85.04603576660156 C 166.8686218261719 77.08599853515625 164.1429595947266 69.41299438476562 160.9711151123047 62.24015808105469 C 157.8393096923828 55.15780639648438 154.2466125488281 48.50396728515625 150.2928161621094 42.46345520019531 C 146.3586578369141 36.45292663574219 142.0366973876953 31.00338745117188 137.4470367431641 26.26618957519531 C 132.8466949462891 21.51792907714844 127.9392700195312 17.446533203125 122.8610763549805 14.1650390625 C 117.7331924438477 10.85140991210938 112.3781127929688 8.309967041015625 106.944580078125 6.611297607421875 C 101.4021530151367 4.878570556640625 95.70115661621094 4 90 4 M 90 0 C 139.7056121826172 0 180 61.56085205078125 180 137.5 C 180 213.4391479492188 139.7056121826172 275 90 275 C 40.29438781738281 275 0 213.4391479492188 0 137.5 C 0 61.56085205078125 40.29438781738281 0 90 0 Z"/>
    </g>
    <text id="I_voted" data-name="I voted" class="cls-3" transform="translate(210.071 1720.542) rotate(16)"><tspan x="0" y="0">I voted</tspan></text>
    <g id="Group_21" data-name="Group 21" transform="matrix(0.961, -0.276, 0.276, 0.961, 41.802, 2294.528)">
      <rect id="Rectangle_4" data-name="Rectangle 4" class="cls-4" width="55.721" height="10.115" transform="translate(361.753 -423.607)"/>
      <rect id="Rectangle_5" data-name="Rectangle 5" class="cls-4" width="24.781" height="10.131" transform="translate(361.5 -413.24) rotate(-90)"/>
    </g>
  </g>
</svg>
