<svg width="400" height="400" viewBox="0 0 400 400" fill="none" xmlns="http://www.w3.org/2000/svg">
<path d="M360.301 80.4024C377.952 104.061 390.148 131.333 396.012 160.262C401.877 189.191 401.266 219.059 394.223 247.724C387.179 276.389 373.878 303.139 355.274 326.056C336.67 348.972 313.224 367.486 286.618 380.27C260.013 393.054 230.907 399.79 201.39 399.995C171.874 400.2 142.677 393.87 115.897 381.457C89.1159 369.044 65.4147 350.858 46.4937 328.202C27.5727 305.547 13.901 278.984 6.4597 250.42L200 200L360.301 80.4024Z" fill="#123C69"/>
<path d="M153.846 137.557L249.462 296.38H58.2307L153.846 137.557Z" fill="#123C69"/>
<path d="M264.254 63.3484L342.627 222.172H185.88L264.254 63.3484Z" fill="#123C69"/>
<circle cx="155.656" cy="139.367" r="9.04977" fill="#FDF5F1"/>
<circle cx="101.357" cy="224.434" r="7.23982" fill="#FDF5F1"/>
<circle cx="193.665" cy="208.145" r="7.23982" fill="#BAB2B5"/>
<circle cx="264.253" cy="45.2488" r="18.0995" fill="#FDF5F1"/>
<circle cx="295.023" cy="123.077" r="7.23982" fill="#C4C4C4"/>
</svg>
